<svg xmlns="http://www.w3.org/2000/svg" viewBox="0 0 21 21" class="design-iconfont">
  <g fill="#05CC95" fill-rule="nonzero">
    <path d="M8.40638066,12.849766 L2.8875,12.8495301 C2.16262627,12.8495301 1.575,12.2619038 1.575,11.5370301 L1.575,2.88750011 C1.575,2.16262638 2.16262627,1.57500011 2.8875,1.57500011 L8.38702999,1.57500011 C9.06067165,1.57478184 9.61569384,2.08206109 9.69086449,2.73547905 L9.69921494,2.87767081 L9.69885001,4.58625915 L11.27385,4.58654107 L11.27453,2.88712425 C11.27453,1.29227959 9.98157388,-0.000516678297 8.38677478,9.76996262e-16 L2.8875,9.76996262e-16 C1.29277778,9.76996262e-16 -1.86517468e-15,1.2927779 -1.86517468e-15,2.88750011 L-1.86517468e-15,11.5370301 C-1.86517468e-15,13.1317523 1.29277778,14.4245301 2.8875,14.4245301 L8.38754661,14.4249057 C9.9823912,14.4246204 11.2749561,13.1314331 11.2741542,11.5366342 L11.27385,9.83625922 L9.69885001,9.83654101 L9.69915428,11.537171 C9.69951556,12.2557235 9.12243104,12.8394162 8.40638066,12.849766 Z" transform="translate(1.567296 3.287735)"/>
    <path d="M12.8460617,10.3304185 C12.5385238,10.6379564 12.5385238,11.1365738 12.8460617,11.4441117 C13.1535996,11.7516496 13.652217,11.7516496 13.9597549,11.4441117 L17.6347549,7.7691117 C17.9422927,7.46157382 17.9422927,6.9629564 17.6347549,6.65541852 L13.9597549,2.98041852 C13.652217,2.67288064 13.1535996,2.67288064 12.8460617,2.98041852 C12.5385238,3.2879564 12.5385238,3.78657382 12.8460617,4.0941117 L15.9642151,7.21226511 L12.8460617,10.3304185 Z" transform="translate(1.567296 3.287735)"/>
    <path d="M17.0711151 6.42476511L6.50905151 6.42476511 6.50905151 7.99976511 17.0711151 7.99976511z" transform="translate(1.567296 3.287735)"/>
  </g>
</svg>
